<svg width="159" height="98" viewBox="0 0 159 98" fill="none" xmlns="http://www.w3.org/2000/svg">
<g id="Component 34">
<rect id="Rectangle 4471" x="0.5" y="9.5" width="158" height="79" rx="19.5" fill="white" stroke="#FF0000"/>
<path id="Exclude" fill-rule="evenodd" clip-rule="evenodd" d="M30 80.6318C41.8247 75.0145 50 62.962 50 49C50 35.038 41.8247 22.9855 30 17.3682C34.5463 15.2085 39.632 14 45 14C64.33 14 80 29.67 80 49C80 68.33 64.33 84 45 84C39.632 84 34.5463 82.7915 30 80.6318ZM129 16.6985C116.242 21.9823 107.278 34.455 107.278 49C107.278 63.545 116.242 76.0177 129 81.3015C124.803 83.0398 120.195 84 115.361 84C95.8316 84 80 68.33 80 49C80 29.67 95.8316 14 115.361 14C120.195 14 124.803 14.9602 129 16.6985ZM47.6985 0C52.9823 12.7579 65.455 21.7216 80 21.7216C94.545 21.7216 107.018 12.7579 112.302 0C114.04 4.1971 115 8.80485 115 13.6392C115 33.1684 99.33 49 80 49C60.67 49 45 33.1684 45 13.6392C45 8.80485 45.9602 4.1971 47.6985 0ZM112.302 98C107.018 85.2421 94.545 76.2784 80 76.2784C65.455 76.2784 52.9823 85.2421 47.6985 98C45.9602 93.8029 45 89.1952 45 84.3608C45 64.8316 60.67 49 80 49C99.33 49 115 64.8316 115 84.3608C115 89.1952 114.04 93.8029 112.302 98Z" fill="#FF0000"/>
</g>
</svg>
